<svg xmlns="http://www.w3.org/2000/svg" viewBox="45.9 456.9 20.3 20.3" fill="none"><path d="M54.3 464.613L55.0383 462.031C55.315 461.064 56.685 461.064 56.9617 462.031L57.6992 464.613C57.7459 464.777 57.8334 464.925 57.9536 465.045C58.0737 465.166 58.2225 465.253 58.3858 465.3L60.9683 466.037C61.935 466.314 61.935 467.684 60.9683 467.961L58.3858 468.698C58.2225 468.745 58.0737 468.832 57.9536 468.953C57.8334 469.073 57.7459 469.222 57.6992 469.385L56.9617 471.967C56.685 472.934 55.315 472.934 55.0383 471.967L54.3008 469.385C54.2541 469.222 54.1666 469.073 54.0464 468.953C53.9263 468.832 53.7775 468.745 53.6142 468.698L51.0317 467.961C50.065 467.684 50.065 466.314 51.0317 466.037L53.6142 465.3C53.7775 465.253 53.9263 465.166 54.0464 465.045C54.1666 464.925 54.2533 464.777 54.3 464.613ZM61.0867 470.755C61.3275 470.052 62.34 470.052 62.58 470.755L62.6017 470.827L62.8483 471.817L63.8383 472.065C64.6383 472.265 64.6383 473.4 63.8383 473.6L62.8483 473.847L62.6017 474.837C62.4017 475.637 61.2658 475.637 61.0658 474.837L60.8183 473.847L59.8283 473.6C59.0283 473.4 59.0283 472.264 59.8283 472.065L60.8183 471.817L61.0658 470.827L61.0867 470.755ZM61.8333 472.663C61.7854 472.727 61.7284 472.784 61.6642 472.832C61.7284 472.88 61.7854 472.937 61.8333 473.002C61.8813 472.937 61.9383 472.88 62.0025 472.832C61.9382 472.784 61.8812 472.728 61.8333 472.663ZM49.42 459.087C49.6683 458.362 50.7408 458.386 50.935 459.16L51.1817 460.15L52.1717 460.397C52.9717 460.597 52.9717 461.732 52.1717 461.932L51.1817 462.18L50.935 463.17C50.735 463.969 49.5992 463.969 49.3992 463.17L49.1517 462.18L48.1617 461.932C47.3617 461.732 47.3617 460.597 48.1617 460.397L49.1517 460.15L49.3992 459.16L49.42 459.087ZM50.1667 460.997C50.1186 461.06 50.0617 461.117 49.9975 461.165C50.0618 461.213 50.1188 461.27 50.1667 461.335C50.2146 461.27 50.2715 461.213 50.3358 461.165C50.2716 461.117 50.2146 461.061 50.1667 460.997Z" fill="#00DAFF"></path></svg>